<svg width="765" height="128" viewBox="0 0 765 128" fill="none" xmlns="http://www.w3.org/2000/svg">
<path d="M446.07 36.01H492.04C493.07 36.01 493.83 34.98 493.61 33.89L491.32 22.86C491.16 22.07 490.5 21.5 489.75 21.5C475.94 21.5 462.13 21.51 448.31 21.51C447.56 21.51 446.9 22.08 446.74 22.87C445.99 26.54 445.24 30.21 444.49 33.88C444.28 34.98 445.04 36.01 446.07 36.01Z" fill="#BD9530"/>
<path d="M269.13 34.0799L266.78 23.0499C266.61 22.2599 265.94 21.6899 265.17 21.6899C250.99 21.6899 236.8 21.6999 222.62 21.6999C221.85 21.6999 221.18 22.2699 221.01 23.0599C220.24 26.7299 219.47 30.3999 218.7 34.0699C218.47 35.1499 219.26 36.1799 220.31 36.1799H267.51C268.57 36.1999 269.36 35.1699 269.13 34.0799Z" fill="#BD9530"/>
<path d="M446.07 54.49H492.04C493.07 54.49 493.83 53.46 493.61 52.37L491.32 41.34C491.16 40.55 490.5 39.98 489.75 39.98C475.94 39.98 462.13 39.99 448.31 39.99C447.56 39.99 446.9 40.56 446.74 41.35C445.99 45.02 445.24 48.69 444.49 52.36C444.28 53.46 445.04 54.49 446.07 54.49Z" fill="#BD9530"/>
<path d="M446.07 73.4099H492.04C493.07 73.4099 493.83 72.3799 493.61 71.2899L491.32 60.2599C491.16 59.4699 490.5 58.8999 489.75 58.8999C475.94 58.8999 462.13 58.9099 448.31 58.9099C447.56 58.9099 446.9 59.4799 446.74 60.2699C445.99 63.9399 445.24 67.6099 444.49 71.2799C444.28 72.3799 445.04 73.4099 446.07 73.4099Z" fill="#BD9530"/>
<path d="M250.82 43.2999C250.82 42.6699 250.38 42.1399 249.78 42.0499C245.97 41.5199 242.16 40.9899 238.35 40.4699C237.64 40.3699 237 40.9599 237 41.7099V72.6199C237 73.3699 237.62 73.9599 238.33 73.8699L249.76 72.4299C250.36 72.3499 250.81 71.8199 250.81 71.1799V43.2999H250.82Z" fill="#BD9530"/>
<path d="M390.27 21.6599H376.8V73.8499H390.27V21.6599Z" fill="#BD9530"/>
<path d="M412.39 73.68H427.5L405.65 52.15C405.35 51.74 404.45 50.41 404.45 48.49C404.45 46.5 405.39 45.14 405.7 44.74C412.3 37 418.9 29.25 425.5 21.51C421.13 21.51 416.77 21.5 412.4 21.5C405.76 29.24 399.12 36.98 392.47 44.72C392.09 45.31 391.25 46.79 391.21 48.85C391.16 51.27 392.24 52.97 392.63 53.52C399.21 60.24 405.8 66.96 412.39 73.68Z" fill="#BD9530"/>
<path d="M653.24 21.6499H639.77V73.8399H653.24V21.6499Z" fill="#BD9530"/>
<path d="M613.09 21.6799H599.62V73.8699H613.09V21.6799Z" fill="#BD9530"/>
<path d="M746.4 21.6799H727.29C717.56 21.6799 709.67 30.2099 709.67 40.7299V54.6399C709.67 65.1599 717.56 73.6899 727.29 73.6899H746.4C756.13 73.6899 764.02 65.1599 764.02 54.6399V40.7299C764.02 30.1999 756.13 21.6799 746.4 21.6799ZM751.16 54.6399C751.16 57.4899 749.02 59.8099 746.38 59.8099H727.22C724.58 59.8099 722.44 57.4999 722.44 54.6399V40.8099C722.44 37.9599 724.58 35.6399 727.22 35.6399H746.38C749.02 35.6399 751.16 37.9499 751.16 40.8099V54.6399Z" fill="#BD9530"/>
<path d="M332.51 21.75H313.4C303.67 21.75 295.78 30.28 295.78 40.8V54.71C295.78 65.23 303.67 73.76 313.4 73.76H332.51C342.24 73.76 350.13 65.23 350.13 54.71V40.8C350.12 30.27 342.24 21.75 332.51 21.75ZM337.26 54.71C337.26 57.56 335.12 59.88 332.48 59.88H313.32C310.68 59.88 308.54 57.57 308.54 54.71V40.88C308.54 38.03 310.68 35.71 313.32 35.71H332.48C335.12 35.71 337.26 38.02 337.26 40.88V54.71Z" fill="#BD9530"/>
<path d="M667.4 48.6699C667.4 46.6799 668.34 45.3199 668.65 44.9199C675.25 37.1799 681.85 29.4299 688.45 21.6899C684.08 21.6899 679.72 21.6799 675.35 21.6799C668.71 29.4199 662.07 37.1599 655.42 44.8999C655.04 45.4899 654.2 46.9699 654.16 49.0299C654.11 51.4499 655.19 53.1499 655.58 53.6999C662.17 60.4199 668.76 67.1399 675.35 73.8599H690.46L668.61 52.3299C668.3 51.9199 667.41 50.5999 667.4 48.6699Z" fill="#BD9530"/>
<path d="M558.4 21.6599H531.48C523.63 21.6599 517.27 28.5399 517.27 37.0199V73.8399H530.85L530.84 43.7899C530.84 39.3599 534.16 35.7599 538.26 35.7599C542.74 35.7599 547.21 35.7599 551.69 35.7599C555.85 35.7599 559.23 39.4099 559.23 43.9099V73.8299H572.48V36.8599C572.47 28.4699 566.17 21.6599 558.4 21.6599Z" fill="#BD9530"/>
<path d="M237.88 100.26C236.95 99.7399 235.41 99.3299 233.28 99.0199C231.98 98.8199 231.01 98.5799 230.39 98.3099C229.34 97.8599 228.82 97.1199 228.82 96.0799C228.82 95.2399 229.19 94.5799 229.92 94.0699C230.79 93.4599 231.95 93.1499 233.39 93.1499H239.22V90.2799H233.39C231.37 90.2799 229.69 90.7499 228.34 91.6899C226.79 92.7799 226.02 94.2399 226.02 96.0799C226.02 98.2499 226.8 99.7699 228.35 100.64C229.28 101.16 230.81 101.57 232.95 101.88C234.25 102.08 235.22 102.32 235.84 102.59C236.89 103.05 237.41 103.79 237.41 104.82C237.41 105.66 237.04 106.33 236.31 106.84C235.44 107.45 234.37 107.76 233.11 107.76H226.15V110.63H233.11C234.95 110.63 236.54 110.16 237.89 109.21C239.44 108.13 240.21 106.67 240.21 104.82C240.21 102.65 239.43 101.13 237.88 100.26Z" fill="#BD9530"/>
<path d="M268.67 91.0999C268.09 90.4999 267.37 90.1899 266.5 90.1899C265.68 90.1899 264.96 90.4699 264.34 91.0299C263.73 91.5799 263.35 92.2699 263.19 93.1099L260.84 105.6C260.79 105.8 260.69 105.89 260.54 105.89C260.4 105.89 260.3 105.79 260.26 105.58L257.91 93.1099C257.75 92.2599 257.38 91.5799 256.81 91.0499C256.21 90.4799 255.5 90.1999 254.68 90.1999C253.81 90.1999 253.08 90.4999 252.48 91.0899C251.88 91.6799 251.56 92.4299 251.52 93.3199L250.67 110.63H253.49L254.32 93.7099C254.34 93.2999 254.46 93.0999 254.69 93.0999C254.93 93.0999 255.08 93.2899 255.15 93.6599L257.54 106.42C257.68 107.14 258.07 107.71 258.72 108.12C259.25 108.45 259.86 108.62 260.55 108.62C261.24 108.62 261.85 108.45 262.4 108.12C263.04 107.71 263.43 107.14 263.57 106.42L265.97 93.6599C266.04 93.2899 266.2 93.0999 266.44 93.0999C266.65 93.0999 266.76 93.2899 266.78 93.6599L267.61 110.63H270.45L269.6 93.3199C269.53 92.4299 269.23 91.6899 268.67 91.0999Z" fill="#BD9530"/>
<path d="M290.97 91.1199C290.33 90.5599 289.6 90.2799 288.8 90.2799C288 90.2799 287.28 90.5599 286.64 91.1199C286.06 91.6199 285.64 92.2799 285.38 93.0999L280.13 110.63H283.09L288.04 93.9899C288.21 93.4399 288.47 93.1699 288.8 93.1699C289.13 93.1699 289.39 93.4399 289.57 93.9899L292.16 102.67H286.71L285.92 105.33H292.96L294.53 110.63H297.49L292.23 93.0999C291.96 92.2799 291.54 91.6199 290.97 91.1199Z" fill="#BD9530"/>
<path d="M331.82 93.1499H337.9V110.63H340.71V93.1499H346.79V90.2799H331.82V93.1499Z" fill="#BD9530"/>
<path d="M485.69 93.11H491.77V110.58H494.58V93.11H500.66V90.24H485.69V93.11Z" fill="#BD9530"/>
<path d="M375.02 90.2799H372.22V110.62H375.02V90.2799Z" fill="#BD9530"/>
<path d="M398.92 106.84C398.92 107.15 398.89 107.36 398.83 107.48C398.74 107.67 398.55 107.76 398.25 107.76C397.98 107.76 397.8 107.71 397.71 107.61C397.53 107.42 397.35 107.03 397.18 106.44L393.57 93.6799C393.23 92.4699 392.74 91.5999 392.1 91.0699C391.49 90.5499 390.7 90.2899 389.73 90.2899C388.72 90.2899 387.88 90.6699 387.23 91.4299C386.63 92.1399 386.33 93.0099 386.33 94.0599V110.63H389.13V94.0599C389.13 93.4599 389.36 93.1499 389.82 93.1499C390.18 93.1499 390.43 93.2699 390.57 93.5099C390.62 93.5899 390.73 93.9099 390.88 94.4699L394.5 107.23C394.8 108.3 395.21 109.1 395.73 109.63C396.37 110.29 397.21 110.62 398.24 110.62C399.33 110.62 400.18 110.26 400.82 109.55C401.42 108.87 401.72 107.97 401.72 106.83V90.2799H398.92V106.84Z" fill="#BD9530"/>
<path d="M421.4 106.92C421.22 107.47 420.96 107.74 420.63 107.74C420.3 107.74 420.04 107.47 419.87 106.92L414.51 90.2799H411.55L417.21 107.81C417.47 108.63 417.89 109.29 418.47 109.79C419.11 110.35 419.83 110.63 420.63 110.63C421.43 110.63 422.16 110.35 422.8 109.79C423.37 109.29 423.79 108.63 424.06 107.81L429.73 90.2799H426.77L421.4 106.92Z" fill="#BD9530"/>
<path d="M464.13 91.6899C462.58 92.7799 461.81 94.2399 461.81 96.0799C461.81 98.2499 462.59 99.7699 464.14 100.64C465.07 101.16 466.6 101.57 468.74 101.88C470.04 102.08 471.01 102.32 471.63 102.59C472.68 103.05 473.2 103.79 473.2 104.82C473.2 105.66 472.83 106.33 472.1 106.84C471.23 107.45 470.16 107.76 468.9 107.76H461.94V110.63H468.9C470.74 110.63 472.33 110.16 473.68 109.21C475.23 108.13 476 106.67 476 104.82C476 102.66 475.22 101.14 473.67 100.26C472.74 99.7399 471.2 99.3299 469.07 99.0199C467.77 98.8199 466.8 98.5799 466.18 98.3099C465.13 97.8599 464.61 97.1199 464.61 96.0799C464.61 95.2399 464.98 94.5799 465.71 94.0699C466.58 93.4599 467.74 93.1499 469.18 93.1499H476.02V90.2799H469.18C467.16 90.2799 465.47 90.7499 464.13 91.6899Z" fill="#BD9530"/>
<path d="M316.69 102.31C318.56 102.31 320.02 101.77 321.07 100.69C322.12 99.62 322.64 98.17 322.64 96.33C322.64 94.41 322.12 92.91 321.07 91.84C320.02 90.76 318.56 90.22 316.69 90.22H311C309.99 90.22 309.12 90.59 308.41 91.32C307.9 91.84 307.59 92.44 307.43 93.1H311.3H316.68C317.78 93.1 318.58 93.36 319.08 93.87C319.58 94.38 319.83 95.2 319.83 96.32C319.83 97.55 319.58 98.42 319.08 98.93C318.58 99.44 317.78 99.7 316.68 99.7H313.82C313.29 99.7 312.8 99.86 312.37 100.17C311.94 100.47 311.64 100.88 311.45 101.4C311.31 101.84 311.28 102.32 311.37 102.85C311.51 103.43 311.81 103.89 312.28 104.23L318.77 110.63H322.79L314.13 102.31H316.69Z" fill="#BD9530"/>
<path d="M310.14 98.5299H307.33V110.62H310.14V98.5299Z" fill="#BD9530"/>
<path d="M442.63 107.48C442.46 107.3 442.37 107.09 442.37 106.85V101.14H451.58V98.5299H443.72H442.37H439.56V106.85C439.56 107.89 439.92 108.78 440.63 109.51C441.35 110.25 442.22 110.62 443.24 110.62H452.02V107.74H443.24C443 107.74 442.8 107.65 442.63 107.48Z" fill="#BD9530"/>
<path d="M440.63 91.33C440.13 91.85 439.82 92.45 439.67 93.11H443.72H452.13V90.23H443.24C442.22 90.23 441.36 90.59 440.63 91.33Z" fill="#BD9530"/>
<path d="M209.14 109.55C208.73 108.42 208.32 107.28 207.92 106.15C207.71 105.57 207.16 105.18 206.54 105.18H89.35C93.59 101.41 97.68 97.65 101.63 93.91C109.07 94.29 116.31 94.51 123.31 94.58C123.32 94.58 123.33 94.58 123.33 94.58C123.34 94.58 123.34 94.58 123.35 94.58C133.28 94.7 149.16 91.68 160.9 81.92C183.5 63.14 180.88 33.8 180.62 31.31C178.25 31.05 148.42 28.34 129.7 51.27C128.83 52.33 128.04 53.4 127.29 54.48C127.6 52.87 127.85 51.25 127.99 49.59C130.5 20.31 107.79 1.57 105.83 0C104.46 1.12 91.49 12.07 86.2 29.68C79.82 25.65 74.1 24.07 72.49 23.65C71.58 25.09 67.97 30.97 66.15 39.39C49.4 30.29 31.09 31.24 29.97 31.31C29.71 36.37 29.9 44.02 32.51 52.77C34.19 58.41 38.51 72.2 51.65 82.13C52.51 82.78 54.92 84.55 58.5 86.44C57.7 86.23 56.9 86.04 56.07 85.87C24.73 79.38 1.03 106.03 0 107.22C3.42 110.96 8.99 116.2 17.05 120.49C22.24 123.25 35.09 129.87 51.39 127.49C53.49 127.18 62.83 125.68 72.07 119.65C72.94 119.08 73.93 118.35 75.13 117.4C76.23 116.52 77.51 115.45 79.02 114.14C80.39 112.99 81.76 111.81 83.14 110.63H208.38C208.94 110.63 209.33 110.07 209.14 109.55ZM67.16 46.35C68.36 47.23 69.55 48.19 70.73 49.23C84.57 61.54 87.27 77.53 87.8 84.55C80.9 80.42 72.58 73.2 68.86 61.25C67.19 55.93 66.83 50.88 67.16 46.35ZM89.71 42.38C89.79 40 90.04 37.72 90.41 35.56C94.82 39.26 99.11 44.36 101.96 51.35C106.2 61.76 105.23 71.45 103.25 78.46C98.14 72.74 89.14 60.12 89.71 42.38ZM101.2 84.23C100.49 85.9 99.81 87.22 99.31 88.11C97.72 88.05 96.13 87.99 94.54 87.93C94.01 87.71 93.45 87.47 92.85 87.2C92.96 83.45 92.77 77.66 91.05 71.09C94.6 77.33 98.66 81.76 101.2 84.23ZM139.14 49.61C154.12 35.74 172.13 36.03 175.68 36.16C175.79 39.94 175.89 57.42 162.53 72.19C147.09 89.27 126.01 89.09 122.89 89.01C122.79 85.93 122.4 65.11 139.14 49.61ZM117.46 88.81C114.09 88.68 110.71 88.55 107.34 88.43C108.43 87.37 109.53 86.3 110.59 85.25C110.6 85.24 110.6 85.24 110.61 85.23L110.62 85.22C113.16 82.71 115.95 79.35 118.54 75.39C117.37 81.4 117.37 86.31 117.46 88.81ZM105.81 6.91998C108.58 9.49998 121.09 21.71 122.22 41.59C123.53 64.57 108.6 79.45 106.34 81.62C106.12 81.42 105.77 81.09 105.33 80.65C107.72 71.72 108.79 59.12 102.06 46.54C98.97 40.76 94.97 36.37 90.91 33.06C94.27 18.15 103.64 8.95998 105.81 6.91998ZM73.45 26.62C74.43 26.87 79.63 28.26 85.56 32.01C84.17 37.52 83.55 43.63 84.27 50.26C84.57 53.05 85.08 55.68 85.75 58.17C85.37 57.52 84.98 56.87 84.56 56.22C79.99 49.16 74.15 44.1 68.01 40.45C69.59 33.04 72.67 27.87 73.45 26.62ZM48.11 70.76C35.57 56.77 35.15 40.42 35.16 36.33C38.56 36.25 52.13 36.24 65.29 45.04C64.84 49.95 65.13 55.45 66.81 61.26C70.72 74.77 80.08 82.95 87.92 87.65C87.92 87.66 87.92 87.68 87.92 87.69C84.78 87.76 63.5 87.94 48.11 70.76ZM71.76 91.35C72.77 91.57 73.99 91.76 75.51 91.94C76.91 92.11 78.57 92.26 80.57 92.42C84.56 92.78 88.62 93.11 92.76 93.39C93.09 93.41 93.41 93.43 93.75 93.45C90.64 96.37 87.53 99.29 84.41 102.22C81.67 99.3 76.74 94.62 69.7 90.85C70.37 91.03 71.06 91.19 71.76 91.35ZM40.81 122.02C22.04 121.11 10.11 109.93 7.21 107.05C9.86 104.23 21.85 92.08 41.38 90.81C63.76 89.35 78.52 103.32 80.83 105.58C78.67 107.87 63.85 123.14 40.81 122.02Z" fill="#BD9530"/>
</svg>
